# xmcd
# 
# Track frame offsets:
#     150
#     17322
#     31877
#     49887
#     66112
#     82160
#     100005
#     114612
#     130432
#     148392
#     164307
#     181005
# 
# Disc length: 2628
# 
# Revision: 6
# Processed by: cddbd v1.5.2PL0 Copyright (c) Steve Scherf et al.
# Submitted via: fre:ac v1.0.27
# 
DISCID=a00a420c
DTITLE=THE ALFEE - SINGLE HISTORY vol.I 1979-1982 Disc2
DYEAR=1994
DGENRE=JPop
TTITLE0=恋人になりたい
TTITLE1=CHECK OUT
TTITLE2=宛先のない手紙
TTITLE3=北のHOTEL
TTITLE4=通り雨
TTITLE5=言葉にしたくない天気
TTITLE6=泣かないでMY LOVE
TTITLE7=モーニング・コールでラスト・キッス
TTITLE8=SUNSET SUMMER
TTITLE9=絶叫！ジャンピング・グルーピー
TTITLE10=別れの律動
TTITLE11=挽歌
EXTD=YEAR: 1994
EXTT0=
EXTT1=
EXTT2=
EXTT3=
EXTT4=
EXTT5=
EXTT6=
EXTT7=
EXTT8=
EXTT9=
EXTT10=
EXTT11=
PLAYORDER=
